<svg width="12" height="21" viewBox="0 0 12 21" fill="none" xmlns="http://www.w3.org/2000/svg">
<path d="M11.565 10.2662C11.5257 9.868 11.3652 9.491 11.1048 9.18821L4.12817 1.04884C3.79963 0.638538 3.31819 0.379627 2.79584 0.331179C2.27348 0.28273 1.75419 0.447758 1.35447 0.788418C0.956299 1.13058 0.712544 1.61809 0.680723 2.14196C0.648929 2.66582 0.830612 3.18058 1.1849 3.56817L7.08362 10.4479L1.1849 17.3276C0.830619 17.7152 0.648941 18.2299 0.680723 18.7538C0.712517 19.2777 0.956276 19.7652 1.35447 20.1073C1.75415 20.448 2.27348 20.613 2.79584 20.5646C3.31819 20.5161 3.79961 20.2572 4.12817 19.8469L11.1048 11.7075C11.4469 11.3094 11.612 10.7885 11.565 10.2662Z" fill="white"/>
</svg>
