<svg width="100" height="100" viewBox="0 0 100 100" fill="none" xmlns="http://www.w3.org/2000/svg">
<path d="M92.1875 9.375H84.375V7.8125C84.375 6.5693 83.8811 5.37701 83.0021 4.49794C82.123 3.61886 80.9307 3.125 79.6875 3.125H76.5625C75.3193 3.125 74.127 3.61886 73.2479 4.49794C72.3689 5.37701 71.875 6.5693 71.875 7.8125V9.375H28.125V7.8125C28.125 6.5693 27.6311 5.37701 26.7521 4.49794C25.873 3.61886 24.6807 3.125 23.4375 3.125H20.3125C19.0693 3.125 17.877 3.61886 16.9979 4.49794C16.1189 5.37701 15.625 6.5693 15.625 7.8125V9.375H7.8125C6.5693 9.375 5.37701 9.86886 4.49794 10.7479C3.61886 11.627 3.125 12.8193 3.125 14.0625V92.1875C3.125 93.4307 3.61886 94.623 4.49794 95.5021C5.37701 96.3811 6.5693 96.875 7.8125 96.875H92.1875C93.4307 96.875 94.623 96.3811 95.5021 95.5021C96.3811 94.623 96.875 93.4307 96.875 92.1875V14.0625C96.875 12.8193 96.3811 11.627 95.5021 10.7479C94.623 9.86886 93.4307 9.375 92.1875 9.375V9.375ZM75 7.8125C75 7.3981 75.1646 7.00067 75.4576 6.70765C75.7507 6.41462 76.1481 6.25 76.5625 6.25H79.6875C80.1019 6.25 80.4993 6.41462 80.7924 6.70765C81.0854 7.00067 81.25 7.3981 81.25 7.8125V17.1875C81.25 17.6019 81.0854 17.9993 80.7924 18.2924C80.4993 18.5854 80.1019 18.75 79.6875 18.75H76.5625C76.1481 18.75 75.7507 18.5854 75.4576 18.2924C75.1646 17.9993 75 17.6019 75 17.1875V7.8125ZM18.75 7.8125C18.75 7.3981 18.9146 7.00067 19.2076 6.70765C19.5007 6.41462 19.8981 6.25 20.3125 6.25H23.4375C23.8519 6.25 24.2493 6.41462 24.5424 6.70765C24.8354 7.00067 25 7.3981 25 7.8125V17.1875C25 17.6019 24.8354 17.9993 24.5424 18.2924C24.2493 18.5854 23.8519 18.75 23.4375 18.75H20.3125C19.8981 18.75 19.5007 18.5854 19.2076 18.2924C18.9146 17.9993 18.75 17.6019 18.75 17.1875V7.8125ZM6.25 14.0625C6.25 13.6481 6.41462 13.2507 6.70765 12.9576C7.00067 12.6646 7.3981 12.5 7.8125 12.5H15.625V17.1875C15.625 18.4307 16.1189 19.623 16.9979 20.5021C17.877 21.3811 19.0693 21.875 20.3125 21.875H23.4375C24.6807 21.875 25.873 21.3811 26.7521 20.5021C27.6311 19.623 28.125 18.4307 28.125 17.1875V12.5H71.875V17.1875C71.875 18.4307 72.3689 19.623 73.2479 20.5021C74.127 21.3811 75.3193 21.875 76.5625 21.875H79.6875C80.9307 21.875 82.123 21.3811 83.0021 20.5021C83.8811 19.623 84.375 18.4307 84.375 17.1875V12.5H92.1875C92.6019 12.5 92.9993 12.6646 93.2924 12.9576C93.5854 13.2507 93.75 13.6481 93.75 14.0625V25H6.25V14.0625ZM93.75 92.1875C93.75 92.6019 93.5854 92.9993 93.2924 93.2924C92.9993 93.5854 92.6019 93.75 92.1875 93.75H7.8125C7.3981 93.75 7.00067 93.5854 6.70765 93.2924C6.41462 92.9993 6.25 92.6019 6.25 92.1875V28.125H93.75V92.1875Z" fill="white"/>
<path d="M53.125 65.625H46.875C46.4606 65.625 46.0632 65.4604 45.7701 65.1674C45.4771 64.8743 45.3125 64.4769 45.3125 64.0625V57.8125C45.3125 57.3981 45.4771 57.0007 45.7701 56.7076C46.0632 56.4146 46.4606 56.25 46.875 56.25H53.125C53.5394 56.25 53.9368 56.4146 54.2299 56.7076C54.5229 57.0007 54.6875 57.3981 54.6875 57.8125V64.0625C54.6875 64.4769 54.5229 64.8743 54.2299 65.1674C53.9368 65.4604 53.5394 65.625 53.125 65.625ZM48.4375 62.5H51.5625V59.375H48.4375V62.5Z" fill="white"/>
<path d="M68.75 65.625H62.5C62.0856 65.625 61.6882 65.4604 61.3951 65.1674C61.1021 64.8743 60.9375 64.4769 60.9375 64.0625V57.8125C60.9375 57.3981 61.1021 57.0007 61.3951 56.7076C61.6882 56.4146 62.0856 56.25 62.5 56.25H68.75C69.1644 56.25 69.5618 56.4146 69.8549 56.7076C70.1479 57.0007 70.3125 57.3981 70.3125 57.8125V64.0625C70.3125 64.4769 70.1479 64.8743 69.8549 65.1674C69.5618 65.4604 69.1644 65.625 68.75 65.625ZM64.0625 62.5H67.1875V59.375H64.0625V62.5Z" fill="white"/>
<path d="M37.5 65.625H31.25C30.8356 65.625 30.4382 65.4604 30.1451 65.1674C29.8521 64.8743 29.6875 64.4769 29.6875 64.0625V57.8125C29.6875 57.3981 29.8521 57.0007 30.1451 56.7076C30.4382 56.4146 30.8356 56.25 31.25 56.25H37.5C37.9144 56.25 38.3118 56.4146 38.6049 56.7076C38.8979 57.0007 39.0625 57.3981 39.0625 57.8125V64.0625C39.0625 64.4769 38.8979 64.8743 38.6049 65.1674C38.3118 65.4604 37.9144 65.625 37.5 65.625ZM32.8125 62.5H35.9375V59.375H32.8125V62.5Z" fill="white"/>
<path d="M84.375 65.625H78.125C77.7106 65.625 77.3132 65.4604 77.0201 65.1674C76.7271 64.8743 76.5625 64.4769 76.5625 64.0625V57.8125C76.5625 57.3981 76.7271 57.0007 77.0201 56.7076C77.3132 56.4146 77.7106 56.25 78.125 56.25H84.375C84.7894 56.25 85.1868 56.4146 85.4799 56.7076C85.7729 57.0007 85.9375 57.3981 85.9375 57.8125V64.0625C85.9375 64.4769 85.7729 64.8743 85.4799 65.1674C85.1868 65.4604 84.7894 65.625 84.375 65.625ZM79.6875 62.5H82.8125V59.375H79.6875V62.5Z" fill="white"/>
<path d="M21.875 65.625H15.625C15.2106 65.625 14.8132 65.4604 14.5201 65.1674C14.2271 64.8743 14.0625 64.4769 14.0625 64.0625V57.8125C14.0625 57.3981 14.2271 57.0007 14.5201 56.7076C14.8132 56.4146 15.2106 56.25 15.625 56.25H21.875C22.2894 56.25 22.6868 56.4146 22.9799 56.7076C23.2729 57.0007 23.4375 57.3981 23.4375 57.8125V64.0625C23.4375 64.4769 23.2729 64.8743 22.9799 65.1674C22.6868 65.4604 22.2894 65.625 21.875 65.625ZM17.1875 62.5H20.3125V59.375H17.1875V62.5Z" fill="white"/>
<path d="M53.125 50H46.875C46.4606 50 46.0632 49.8354 45.7701 49.5424C45.4771 49.2493 45.3125 48.8519 45.3125 48.4375V42.1875C45.3125 41.7731 45.4771 41.3757 45.7701 41.0826C46.0632 40.7896 46.4606 40.625 46.875 40.625H53.125C53.5394 40.625 53.9368 40.7896 54.2299 41.0826C54.5229 41.3757 54.6875 41.7731 54.6875 42.1875V48.4375C54.6875 48.8519 54.5229 49.2493 54.2299 49.5424C53.9368 49.8354 53.5394 50 53.125 50ZM48.4375 46.875H51.5625V43.75H48.4375V46.875Z" fill="white"/>
<path d="M68.75 50H62.5C62.0856 50 61.6882 49.8354 61.3951 49.5424C61.1021 49.2493 60.9375 48.8519 60.9375 48.4375V42.1875C60.9375 41.7731 61.1021 41.3757 61.3951 41.0826C61.6882 40.7896 62.0856 40.625 62.5 40.625H68.75C69.1644 40.625 69.5618 40.7896 69.8549 41.0826C70.1479 41.3757 70.3125 41.7731 70.3125 42.1875V48.4375C70.3125 48.8519 70.1479 49.2493 69.8549 49.5424C69.5618 49.8354 69.1644 50 68.75 50ZM64.0625 46.875H67.1875V43.75H64.0625V46.875Z" fill="white"/>
<path d="M37.5 50H31.25C30.8356 50 30.4382 49.8354 30.1451 49.5424C29.8521 49.2493 29.6875 48.8519 29.6875 48.4375V42.1875C29.6875 41.7731 29.8521 41.3757 30.1451 41.0826C30.4382 40.7896 30.8356 40.625 31.25 40.625H37.5C37.9144 40.625 38.3118 40.7896 38.6049 41.0826C38.8979 41.3757 39.0625 41.7731 39.0625 42.1875V48.4375C39.0625 48.8519 38.8979 49.2493 38.6049 49.5424C38.3118 49.8354 37.9144 50 37.5 50ZM32.8125 46.875H35.9375V43.75H32.8125V46.875Z" fill="white"/>
<path d="M84.375 50H78.125C77.7106 50 77.3132 49.8354 77.0201 49.5424C76.7271 49.2493 76.5625 48.8519 76.5625 48.4375V42.1875C76.5625 41.7731 76.7271 41.3757 77.0201 41.0826C77.3132 40.7896 77.7106 40.625 78.125 40.625H84.375C84.7894 40.625 85.1868 40.7896 85.4799 41.0826C85.7729 41.3757 85.9375 41.7731 85.9375 42.1875V48.4375C85.9375 48.8519 85.7729 49.2493 85.4799 49.5424C85.1868 49.8354 84.7894 50 84.375 50ZM79.6875 46.875H82.8125V43.75H79.6875V46.875Z" fill="white"/>
<path d="M21.875 50H15.625C15.2106 50 14.8132 49.8354 14.5201 49.5424C14.2271 49.2493 14.0625 48.8519 14.0625 48.4375V42.1875C14.0625 41.7731 14.2271 41.3757 14.5201 41.0826C14.8132 40.7896 15.2106 40.625 15.625 40.625H21.875C22.2894 40.625 22.6868 40.7896 22.9799 41.0826C23.2729 41.3757 23.4375 41.7731 23.4375 42.1875V48.4375C23.4375 48.8519 23.2729 49.2493 22.9799 49.5424C22.6868 49.8354 22.2894 50 21.875 50ZM17.1875 46.875H20.3125V43.75H17.1875V46.875Z" fill="white"/>
<path d="M53.125 81.25H46.875C46.4606 81.25 46.0632 81.0854 45.7701 80.7924C45.4771 80.4993 45.3125 80.1019 45.3125 79.6875V73.4375C45.3125 73.0231 45.4771 72.6257 45.7701 72.3326C46.0632 72.0396 46.4606 71.875 46.875 71.875H53.125C53.5394 71.875 53.9368 72.0396 54.2299 72.3326C54.5229 72.6257 54.6875 73.0231 54.6875 73.4375V79.6875C54.6875 80.1019 54.5229 80.4993 54.2299 80.7924C53.9368 81.0854 53.5394 81.25 53.125 81.25ZM48.4375 78.125H51.5625V75H48.4375V78.125Z" fill="white"/>
<path d="M68.75 81.25H62.5C62.0856 81.25 61.6882 81.0854 61.3951 80.7924C61.1021 80.4993 60.9375 80.1019 60.9375 79.6875V73.4375C60.9375 73.0231 61.1021 72.6257 61.3951 72.3326C61.6882 72.0396 62.0856 71.875 62.5 71.875H68.75C69.1644 71.875 69.5618 72.0396 69.8549 72.3326C70.1479 72.6257 70.3125 73.0231 70.3125 73.4375V79.6875C70.3125 80.1019 70.1479 80.4993 69.8549 80.7924C69.5618 81.0854 69.1644 81.25 68.75 81.25ZM64.0625 78.125H67.1875V75H64.0625V78.125Z" fill="white"/>
<path d="M37.5 81.25H31.25C30.8356 81.25 30.4382 81.0854 30.1451 80.7924C29.8521 80.4993 29.6875 80.1019 29.6875 79.6875V73.4375C29.6875 73.0231 29.8521 72.6257 30.1451 72.3326C30.4382 72.0396 30.8356 71.875 31.25 71.875H37.5C37.9144 71.875 38.3118 72.0396 38.6049 72.3326C38.8979 72.6257 39.0625 73.0231 39.0625 73.4375V79.6875C39.0625 80.1019 38.8979 80.4993 38.6049 80.7924C38.3118 81.0854 37.9144 81.25 37.5 81.25ZM32.8125 78.125H35.9375V75H32.8125V78.125Z" fill="white"/>
<path d="M84.375 81.25H78.125C77.7106 81.25 77.3132 81.0854 77.0201 80.7924C76.7271 80.4993 76.5625 80.1019 76.5625 79.6875V73.4375C76.5625 73.0231 76.7271 72.6257 77.0201 72.3326C77.3132 72.0396 77.7106 71.875 78.125 71.875H84.375C84.7894 71.875 85.1868 72.0396 85.4799 72.3326C85.7729 72.6257 85.9375 73.0231 85.9375 73.4375V79.6875C85.9375 80.1019 85.7729 80.4993 85.4799 80.7924C85.1868 81.0854 84.7894 81.25 84.375 81.25ZM79.6875 78.125H82.8125V75H79.6875V78.125Z" fill="white"/>
<path d="M21.875 81.25H15.625C15.2106 81.25 14.8132 81.0854 14.5201 80.7924C14.2271 80.4993 14.0625 80.1019 14.0625 79.6875V73.4375C14.0625 73.0231 14.2271 72.6257 14.5201 72.3326C14.8132 72.0396 15.2106 71.875 15.625 71.875H21.875C22.2894 71.875 22.6868 72.0396 22.9799 72.3326C23.2729 72.6257 23.4375 73.0231 23.4375 73.4375V79.6875C23.4375 80.1019 23.2729 80.4993 22.9799 80.7924C22.6868 81.0854 22.2894 81.25 21.875 81.25ZM17.1875 78.125H20.3125V75H17.1875V78.125Z" fill="white"/>
</svg>
