<svg width="170" height="170" viewBox="0 0 170 170" fill="none" xmlns="http://www.w3.org/2000/svg">
<g clip-path="url(#clip0)">
<path d="M110.383 39.8047C111.946 39.8047 113.213 38.5375 113.213 36.9744V19.9924C113.213 18.4294 111.946 17.1621 110.383 17.1621H19.8123C18.2492 17.1621 16.9819 18.4294 16.9819 19.9924V36.9744C16.9819 38.5375 18.2492 39.8047 19.8123 39.8047H110.383ZM22.6426 22.8228H107.552V34.1441H22.6426V22.8228Z" fill="#4AF6CD"/>
<path d="M19.8125 51.1257H45.2855V56.7864H19.8125V51.1257Z" fill="#4AF6CD"/>
<path d="M50.9458 51.1257H110.383V56.7864H50.9458V51.1257Z" fill="#4AF6CD"/>
<path d="M19.8125 68.1077H45.2855V73.7683H19.8125V68.1077Z" fill="#4AF6CD"/>
<path d="M50.9458 68.1077H110.383V73.7683H50.9458V68.1077Z" fill="#4AF6CD"/>
<path d="M19.8125 85.0898H45.2855V90.7505H19.8125V85.0898Z" fill="#4AF6CD"/>
<path d="M50.9458 85.0898H107.552V90.7505H50.9458V85.0898Z" fill="#4AF6CD"/>
<path d="M19.8125 102.072H45.2855V107.732H19.8125V102.072Z" fill="#4AF6CD"/>
<path d="M50.9458 102.072H99.0614V107.732H50.9458V102.072Z" fill="#4AF6CD"/>
<path d="M19.8125 119.054H45.2855V124.714H19.8125V119.054Z" fill="#4AF6CD"/>
<path d="M50.9458 119.054H87.7401V124.714H50.9458V119.054Z" fill="#4AF6CD"/>
<path d="M75.4448 146.806L70.6119 132.311C70.2692 131.287 69.3737 130.547 68.3026 130.403C67.2329 130.259 66.1729 130.737 65.5732 131.636L56.9578 144.561L53.4931 137.602C53.0564 136.717 52.1913 136.123 51.2087 136.035C50.2275 135.946 49.2697 136.376 48.6824 137.168L40.1914 148.489L44.7188 151.886L50.4624 144.244L54.0736 151.467C54.5241 152.37 55.421 152.964 56.4285 153.026C57.4387 153.102 58.4089 152.621 58.9617 151.773L67.074 139.603L70.9049 151.094C71.2946 152.244 72.374 153.019 73.5887 153.018C73.8209 153.018 74.0517 152.989 74.277 152.934L85.5983 150.103L84.2274 144.613L75.4448 146.806Z" fill="#4AF6CD"/>
<path d="M169.899 60.7072C169.705 59.9803 169.231 59.3612 168.58 58.9867L161.221 54.7412L165.466 47.382C166.594 45.4307 166.9 43.1103 166.315 40.9336C165.732 38.757 164.306 36.9023 162.353 35.7774L157.451 32.9471C155.5 31.8194 153.181 31.5139 151.004 32.0985C148.827 32.6817 146.973 34.108 145.846 36.0607L140.186 45.8646L130.195 63.2059V8.67092C130.195 3.9818 126.393 0.179932 121.704 0.179932H8.49099C3.80187 0.179932 0 3.9818 0 8.67092V161.509C0 166.198 3.80187 170 8.49099 170H121.704C126.393 170 130.195 166.198 130.195 161.509V108.491L158.396 59.6459L163.298 62.4762L144.913 94.3395L149.818 97.1698L169.63 62.8549C170.001 62.2026 170.098 61.43 169.899 60.7072V60.7072ZM150.769 38.8966C151.55 37.545 153.279 37.0806 154.632 37.8601L159.535 40.6904C160.889 41.474 161.351 43.2056 160.567 44.56L156.322 51.9191L146.521 46.2585L150.769 38.8966ZM124.534 161.509C124.534 163.072 123.267 164.339 121.704 164.339H8.49099C6.92795 164.339 5.66066 163.072 5.66066 161.509V8.67092C5.66066 7.10788 6.92795 5.84059 8.49099 5.84059H121.704C123.267 5.84059 124.534 7.10788 124.534 8.67092V73.0098L94.9183 124.307C94.7538 124.602 94.646 124.926 94.5977 125.26H94.5783L90.6161 149.118C90.4227 150.281 90.9713 151.444 91.9926 152.034C93.0153 152.622 94.295 152.517 95.2071 151.767L113.886 136.403C114.152 136.193 114.377 135.936 114.552 135.646L124.534 118.295V161.509ZM99.4913 130.218L107.134 134.623L97.4432 142.596L99.4913 130.218ZM111.037 130.347L101.238 124.687L143.693 51.1549L153.491 56.8155L111.037 130.347Z" fill="#4AF6CD"/>
</g>
<defs>
<clipPath id="clip0">
<rect width="170" height="170" fill="white"/>
</clipPath>
</defs>
</svg>
