<svg width="100" height="100" viewBox="0 0 100 100" fill="none" xmlns="http://www.w3.org/2000/svg">
<path d="M95 11.6665H5C2.23867 11.6665 0 13.905 0 16.6665V83.3331C0 86.0944 2.23848 88.3331 5 88.3331H95C97.7613 88.3331 100 86.0946 100 83.3331V16.6665C100 13.9052 97.7615 11.6665 95 11.6665ZM96.6666 83.3333C96.6666 84.2538 95.9205 84.9999 95 84.9999H5C4.07949 84.9999 3.3334 84.2538 3.3334 83.3333V16.6665C3.3334 15.746 4.07949 14.9999 5 14.9999H95C95.9205 14.9999 96.6666 15.746 96.6666 16.6665V83.3333V83.3333Z" fill="white"/>
<path d="M91.8117 18.3394C91.3713 18.301 90.9336 18.4391 90.5951 18.7234L52.1449 51.0232C50.9049 52.0656 49.0949 52.0656 47.8549 51.0232L9.4051 18.7232C8.94904 18.3404 8.32326 18.2299 7.76369 18.4334C7.20412 18.6369 6.79553 19.1236 6.69201 19.7101C6.58849 20.2967 6.80568 20.8937 7.26174 21.2766L45.7117 53.5748C48.1899 55.6613 51.8102 55.6613 54.2885 53.5748L92.7383 21.2767C93.077 20.9926 93.2887 20.5855 93.3272 20.1451C93.3656 19.7047 93.2276 19.267 92.9432 18.9285C92.6592 18.5896 92.2522 18.3779 91.8117 18.3394Z" fill="white"/>
<path d="M32.0555 53.3457C31.4654 53.2141 30.8506 53.4121 30.4482 53.8633L7.11483 78.8633C6.69257 79.2957 6.53749 79.9231 6.70975 80.5024C6.88202 81.0818 7.35448 81.5225 7.94432 81.6541C8.53436 81.7858 9.14921 81.5877 9.55155 81.1365L32.8849 56.1365C33.3072 55.7041 33.4623 55.0768 33.29 54.4975C33.1178 53.9182 32.6455 53.4774 32.0555 53.3457Z" fill="white"/>
<path d="M69.5518 53.8633C69.1496 53.4121 68.5346 53.2141 67.9445 53.3457C67.3545 53.4774 66.8822 53.9182 66.71 54.4975C66.5377 55.077 66.6928 55.7041 67.115 56.1365L90.4484 81.1365C91.0813 81.7846 92.1156 81.8088 92.7779 81.1908C93.4402 80.5729 93.4879 79.5393 92.8852 78.8631L69.5518 53.8633Z" fill="white"/>
</svg>
