<svg width="90" height="90" viewBox="0 0 90 90" fill="none" xmlns="http://www.w3.org/2000/svg">
<g clip-path="url(#clip0)">
<path d="M87.6384 69.4304L69.4221 57.2822C67.1104 55.753 64.0116 56.2561 62.3026 58.4385L56.9964 65.261C56.3144 66.1601 55.0748 66.4209 54.0883 65.8729L53.079 65.3165C49.7329 63.4927 45.5696 61.2221 37.1814 52.8309C28.7931 44.4396 26.518 40.2732 24.6941 36.9333L24.1407 35.9239C23.5851 34.9376 23.841 33.6927 24.7405 33.0053L31.5584 27.7007C33.7399 25.9915 34.2438 22.8936 32.7163 20.5812L20.5681 2.36487C19.0027 0.0101071 15.8619 -0.69678 13.4384 0.760054L5.82102 5.33584C3.42758 6.74293 1.67161 9.02178 0.921314 11.6948C-1.8217 21.6893 0.241842 38.9383 25.6511 64.3505C45.8637 84.5615 60.911 89.9967 71.2535 89.9967C73.6337 90.0069 76.0046 89.6973 78.3025 89.076C80.9761 88.3265 83.2553 86.5704 84.6615 84.1763L89.2418 76.5634C90.7008 74.1394 89.9942 70.9967 87.6384 69.4304ZM86.6575 75.0245L82.0877 82.6419C81.078 84.3699 79.4387 85.6405 77.5133 86.1874C68.2867 88.7206 52.1671 86.6224 27.7732 62.2285C3.37925 37.8345 1.28126 21.7164 3.81442 12.4884C4.36207 10.5607 5.63419 8.91931 7.36432 7.90802L14.9817 3.33821C16.0333 2.70549 17.3964 3.01218 18.0757 4.03402L24.6748 13.9415L30.2136 22.2488C30.8769 23.2518 30.6589 24.5961 29.7127 25.3384L22.8932 30.643C20.8179 32.2299 20.2252 35.1012 21.503 37.38L22.0445 38.3639C23.9612 41.8794 26.3443 46.2527 35.0445 54.9515C43.7448 63.6502 48.1167 66.0334 51.6306 67.95L52.6158 68.4929C54.8945 69.7705 57.766 69.178 59.3529 67.1027L64.6575 60.2832C65.3999 59.3375 66.7438 59.1197 67.7471 59.7823L85.9619 71.9305C86.9844 72.6093 87.2911 73.9731 86.6575 75.0245Z" fill="white"/>
<path d="M50.9973 15.0077C65.072 15.0234 76.4778 26.4294 76.4936 40.504C76.4936 41.3324 77.165 42.0037 77.9933 42.0037C78.8216 42.0037 79.493 41.3324 79.493 40.504C79.4756 24.7734 66.7279 12.0255 50.9973 12.0083C50.169 12.0083 49.4976 12.6797 49.4976 13.508C49.4976 14.3364 50.169 15.0077 50.9973 15.0077Z" fill="white"/>
<path d="M50.9973 24.0068C60.1042 24.0175 67.4842 31.3974 67.4949 40.5044C67.4949 41.3327 68.1665 42.0041 68.9947 42.0041C69.823 42.0041 70.4944 41.3327 70.4944 40.5044C70.4819 29.7415 61.76 21.0196 50.9973 21.0073C50.169 21.0073 49.4976 21.6787 49.4976 22.507C49.4976 23.3354 50.169 24.0068 50.9973 24.0068Z" fill="white"/>
<path d="M50.9973 33.0053C55.1367 33.0102 58.4912 36.3647 58.4963 40.5043C58.4963 41.3326 59.1678 42.004 59.996 42.004C60.8241 42.004 61.4957 41.3326 61.4957 40.5043C61.489 34.7089 56.7927 30.0124 50.9973 30.0059C50.169 30.0059 49.4976 30.6772 49.4976 31.5056C49.4976 32.3339 50.169 33.0053 50.9973 33.0053Z" fill="white"/>
</g>
<defs>
<clipPath id="clip0">
<rect width="90" height="90" fill="white"/>
</clipPath>
</defs>
</svg>
