<svg width="100" height="100" viewBox="0 0 100 100" fill="none" xmlns="http://www.w3.org/2000/svg">
<path d="M72.9308 0H27.069C12.1429 0 0 12.1429 0 27.069V72.9315C0 87.8569 12.1429 99.9998 27.069 99.9998H72.9315C87.8569 99.9998 99.9998 87.8569 99.9998 72.9315V27.069C99.9998 12.1429 87.8569 0 72.9308 0V0ZM94.1374 72.9315C94.1374 84.6243 84.6243 94.1374 72.9308 94.1374H27.069C15.3755 94.1374 5.86242 84.6243 5.86242 72.9315V27.069C5.86242 15.3755 15.3755 5.86242 27.069 5.86242H72.9315C84.6243 5.86242 94.1374 15.3755 94.1374 27.069V72.9315Z" fill="white"/>
<path d="M49.9997 22.657C34.9225 22.657 22.6567 34.9227 22.6567 49.9999C22.6567 65.0771 34.9225 77.3428 49.9997 77.3428C65.0769 77.3428 77.3426 65.0771 77.3426 49.9999C77.3426 34.9227 65.0769 22.657 49.9997 22.657V22.657ZM49.9997 71.4804C38.1558 71.4804 28.5192 61.8445 28.5192 49.9999C28.5192 38.1561 38.1558 28.5194 49.9997 28.5194C61.8443 28.5194 71.4802 38.1561 71.4802 49.9999C71.4802 61.8445 61.8443 71.4804 49.9997 71.4804V71.4804Z" fill="white"/>
<path d="M77.9965 12.9463C73.5409 12.9463 69.917 16.571 69.917 21.0258C69.917 25.4814 73.5409 29.1061 77.9965 29.1061C82.4521 29.1061 86.0768 25.4814 86.0768 21.0258C86.0768 16.5702 82.4521 12.9463 77.9965 12.9463ZM77.9965 23.2429C76.7743 23.2429 75.7794 22.248 75.7794 21.0258C75.7794 19.8028 76.7743 18.8087 77.9965 18.8087C79.2195 18.8087 80.2144 19.8028 80.2144 21.0258C80.2144 22.248 79.2195 23.2429 77.9965 23.2429Z" fill="white"/>
</svg>
