<svg width="131" height="62" viewBox="0 0 131 62" fill="none" xmlns="http://www.w3.org/2000/svg">
<g clip-path="url(#clip0)">
<path fill-rule="evenodd" clip-rule="evenodd" d="M131.384 -3.9917L131.786 60.2109L56.2524 60.6842L55.8501 -3.51839L131.384 -3.9917Z" fill="#4AF6CD"/>
<path d="M70.8795 19.4019C72.1291 19.3941 73.2296 19.563 74.181 19.9086C75.1481 20.2541 76.0135 20.7761 76.7772 21.4745L74.8219 23.734C73.6775 22.8698 72.4804 22.4416 71.2308 22.4494C70.5822 22.4535 70.0847 22.5789 69.7382 22.8257C69.4075 23.057 69.2434 23.3867 69.2461 23.8148C69.248 24.1205 69.3366 24.3722 69.5119 24.5698C69.6871 24.7674 69.981 24.9567 70.3934 25.1375C70.8058 25.3184 71.4558 25.5436 72.3434 25.8132C74.0392 26.3223 75.2772 26.9719 76.0573 27.762C76.8531 28.5366 77.2554 29.6195 77.2641 31.0105C77.2704 32.0194 77.0071 32.9153 76.4741 33.6983C75.9411 34.466 75.1618 35.0671 74.1363 35.5015C73.1266 35.9359 71.9336 36.1574 70.5574 36.166C67.9315 36.1825 65.7833 35.4239 64.1126 33.8904L66.2574 31.561C67.5768 32.5923 68.9484 33.1034 70.3721 33.0945C71.1155 33.0898 71.692 32.9334 72.1013 32.6251C72.5106 32.3015 72.7136 31.8798 72.7103 31.3601C72.708 30.9932 72.6271 30.6956 72.4675 30.4673C72.3077 30.2237 72.0217 30.0115 71.6092 29.8306C71.2125 29.6344 70.6259 29.4241 69.8494 29.1996C67.9792 28.6457 66.662 27.9737 65.8977 27.1836C65.1335 26.3934 64.7475 25.3946 64.74 24.1869C64.734 23.2392 64.9898 22.4045 65.5073 21.6827C66.0407 20.9609 66.7728 20.406 67.7037 20.018C68.6503 19.6146 69.7089 19.4092 70.8795 19.4019ZM91.8705 19.6831L86.6656 29.7134L86.7028 35.6521L82.3132 35.6796L82.2761 29.7638L76.9457 19.7766L81.7388 19.7466L84.5098 26.4937L87.2199 19.7122L91.8705 19.6831ZM97.8362 19.6457C100.446 19.6294 102.546 20.1895 104.135 21.326C105.724 22.4473 106.528 24.506 106.546 27.5021C106.58 32.8523 103.821 35.5448 98.2682 35.5796L93.0006 35.6126L92.9008 19.6766L97.8362 19.6457ZM97.3094 22.6758L97.3713 32.5584L98.5103 32.5513C99.7125 32.5438 100.596 32.1713 101.161 31.434C101.742 30.6966 102.026 29.3954 102.014 27.5305C102.006 26.2465 101.858 25.2537 101.569 24.5524C101.295 23.8356 100.897 23.3413 100.373 23.0694C99.865 22.7974 99.2155 22.6639 98.4246 22.6688L97.3094 22.6758Z" fill="white"/>
<path d="M20.753 20.1287L18.2903 36.0808L12.5718 36.1166L10.742 24.3189L8.91776 36.1395L3.34171 36.1745L0.750421 20.2541L5.11635 20.2267L6.54902 33.0129L8.4857 20.2056L13.0889 20.1768L14.9724 32.9601L16.5532 20.1551L20.753 20.1287ZM32.6059 20.0545L32.1739 23.0611L26.5504 23.0963L26.5716 26.4899L31.4833 26.4591L31.5015 29.3711L26.5899 29.4019L26.6126 33.0248L32.6157 32.9872L32.6345 35.9909L22.2417 36.056L22.1419 20.12L32.6059 20.0545ZM43.8393 27.4823C44.948 27.6894 45.8442 28.0736 46.5279 28.6349C47.2117 29.1963 47.5572 30.0578 47.5644 31.2196C47.5753 32.9469 46.9343 34.1662 45.6416 34.8775C44.3488 35.5736 42.5397 35.9289 40.2144 35.9434L34.6621 35.9782L34.5622 20.0422L39.4739 20.0114C41.8467 19.9966 43.6599 20.3062 44.9136 20.9404C46.183 21.5592 46.8223 22.6024 46.8315 24.0699C46.8374 25.0023 46.5494 25.7532 45.9677 26.3225C45.4016 26.8763 44.6922 27.263 43.8393 27.4823ZM38.9704 22.9726L38.9912 26.2974L40.1302 26.2903C40.9053 26.2854 41.4739 26.1443 41.836 25.8668C42.1981 25.5894 42.3772 25.1449 42.3734 24.5335C42.3699 23.9679 42.1696 23.564 41.7726 23.3219C41.3914 23.0797 40.7658 22.9614 39.8958 22.9668L38.9704 22.9726ZM40.2192 32.9166C41.1525 32.9107 41.8556 32.7764 42.3285 32.5135C42.8013 32.2354 43.0354 31.7295 43.0308 30.9957C43.0264 30.2926 42.8018 29.7895 42.357 29.4866C41.9121 29.1683 41.2704 29.0118 40.432 29.0171L39.0083 29.026L39.0328 32.924L40.2192 32.9166Z" fill="white"/>
<path d="M60.0034 28.176L52.0941 28.2256L52.0965 28.6078L60.0058 28.5582L60.0034 28.176Z" fill="white"/>
</g>
<defs>
<clipPath id="clip0">
<rect x="130.619" y="0.217041" width="60" height="130.11" transform="rotate(89.641 130.619 0.217041)" fill="white"/>
</clipPath>
</defs>
</svg>
