<svg width="157" height="329" viewBox="0 0 157 329" fill="none" xmlns="http://www.w3.org/2000/svg">
<path fill-rule="evenodd" clip-rule="evenodd" d="M-11 -2H157V189H-11V-2Z" fill="#4AF6CD"/>
<path d="M49.22 151.36C49.22 148.2 49.68 145.42 50.6 143.02C51.52 140.58 52.9 138.4 54.74 136.48L60.62 141.46C58.34 144.34 57.2 147.36 57.2 150.52C57.2 152.16 57.52 153.42 58.16 154.3C58.76 155.14 59.62 155.56 60.74 155.56C61.54 155.56 62.2 155.34 62.72 154.9C63.24 154.46 63.74 153.72 64.22 152.68C64.7 151.64 65.3 150 66.02 147.76C67.38 143.48 69.1 140.36 71.18 138.4C73.22 136.4 76.06 135.4 79.7 135.4C82.34 135.4 84.68 136.08 86.72 137.44C88.72 138.8 90.28 140.78 91.4 143.38C92.52 145.94 93.08 148.96 93.08 152.44C93.08 159.08 91.06 164.5 87.02 168.7L80.96 163.24C83.68 159.92 85.04 156.46 85.04 152.86C85.04 150.98 84.64 149.52 83.84 148.48C83 147.44 81.9 146.92 80.54 146.92C79.58 146.92 78.8 147.12 78.2 147.52C77.56 147.92 77 148.64 76.52 149.68C76 150.68 75.44 152.16 74.84 154.12C73.36 158.84 71.58 162.16 69.5 164.08C67.42 166 64.8 166.96 61.64 166.96C59.16 166.96 56.98 166.3 55.1 164.98C53.22 163.62 51.78 161.76 50.78 159.4C49.74 157 49.22 154.32 49.22 151.36ZM50.3 98.2872L76.46 111.607H92V122.707H76.52L50.3 136.027V123.907L68 117.007L50.3 110.047V98.2872ZM50.3 83.2019C50.3 76.6019 51.8 71.3019 54.8 67.3019C57.76 63.3019 63.16 61.3019 71 61.3019C85 61.3019 92 68.3219 92 82.3619V95.6819H50.3V83.2019ZM58.22 84.5819H84.08V81.7019C84.08 78.6619 83.12 76.4219 81.2 74.9819C79.28 73.5019 75.88 72.7619 71 72.7619C67.64 72.7619 65.04 73.1219 63.2 73.8419C61.32 74.5219 60.02 75.5219 59.3 76.8419C58.58 78.1219 58.22 79.7619 58.22 81.7619L58.22 84.5819Z" fill="white"/>
<path d="M50.3 278.12L92 284.6V299.06L61.1 303.5L92 308.3V322.4L50.3 328.7V317.66L83.78 314.24L50.3 309.14V297.5L83.78 292.94L50.3 288.74V278.12ZM50.3 248.148L58.16 249.288V263.508H67.04V251.088H74.66V263.508H84.14V248.328H92V274.608H50.3L50.3 248.148ZM69.92 219.861C70.48 217.061 71.5 214.801 72.98 213.081C74.46 211.361 76.72 210.501 79.76 210.501C84.28 210.501 87.46 212.141 89.3 215.421C91.1 218.701 92 223.281 92 229.161V243.201H50.3V230.781C50.3 224.781 51.14 220.201 52.82 217.041C54.46 213.841 57.2 212.241 61.04 212.241C63.48 212.241 65.44 212.981 66.92 214.461C68.36 215.901 69.36 217.701 69.92 219.861ZM58.04 232.101H66.74V229.221C66.74 227.261 66.38 225.821 65.66 224.901C64.94 223.981 63.78 223.521 62.18 223.521C60.7 223.521 59.64 224.021 59 225.021C58.36 225.981 58.04 227.561 58.04 229.761V232.101ZM84.08 229.101C84.08 226.741 83.74 224.961 83.06 223.761C82.34 222.561 81.02 221.961 79.1 221.961C77.26 221.961 75.94 222.521 75.14 223.641C74.3 224.761 73.88 226.381 73.88 228.501V232.101H84.08V229.101Z" fill="white"/>
<rect x="72" y="199" width="20" height="1" transform="rotate(-90 72 199)" fill="white"/>
</svg>
