<svg width="170" height="170" viewBox="0 0 170 170" fill="none" xmlns="http://www.w3.org/2000/svg">
<path d="M163.425 95.3597C162.016 92.9383 159.707 91.1716 157.001 90.4443C154.295 89.717 151.412 90.0879 148.978 91.4763L100.937 119.473C100.918 115.962 99.5109 112.601 97.0226 110.123C94.5343 107.646 91.167 106.254 87.6558 106.25H34.5653C34.3487 106.251 34.133 106.276 33.9225 106.327L26.485 108.187C26.3101 106.212 25.4039 104.374 23.9439 103.033C22.4839 101.692 20.5756 100.945 18.5933 100.938H13.2808C11.1673 100.938 9.14043 101.777 7.646 103.272C6.15157 104.766 5.31201 106.793 5.31201 108.907V156.719C5.31201 158.833 6.15157 160.859 7.646 162.354C9.14043 163.848 11.1673 164.688 13.2808 164.688H18.5933C20.5702 164.682 22.474 163.939 23.9331 162.605C25.3922 161.272 26.302 159.442 26.485 157.473L33.8959 159.298C34.1037 159.349 34.3168 159.375 34.5308 159.375H71.0276C73.3767 159.375 75.6838 158.752 77.7134 157.569L159.571 109.871C161.988 108.44 163.746 106.118 164.467 103.404C165.188 100.69 164.814 97.8008 163.425 95.3597V95.3597ZM21.2495 156.719C21.2495 157.424 20.9697 158.099 20.4715 158.597C19.9734 159.095 19.2977 159.375 18.5933 159.375H13.2808C12.5763 159.375 11.9007 159.095 11.4025 158.597C10.9044 158.099 10.6245 157.424 10.6245 156.719V108.907C10.6245 108.202 10.9044 107.526 11.4025 107.028C11.9007 106.53 12.5763 106.25 13.2808 106.25H18.5933C19.2977 106.25 19.9734 106.53 20.4715 107.028C20.9697 107.526 21.2495 108.202 21.2495 108.907V156.719ZM156.894 105.283L75.0386 152.979C73.8209 153.689 72.4369 154.063 71.0276 154.063H34.8548L26.562 152.02V113.64L34.8894 111.563H87.6558C89.0645 111.559 90.4489 111.93 91.6672 112.638C92.8855 113.345 93.8939 114.364 94.5892 115.589C95.2846 116.814 95.6418 118.202 95.6244 119.611C95.607 121.02 95.2156 122.399 94.4903 123.606C94.1577 124.167 93.761 124.688 93.3082 125.158C91.8079 126.655 89.7756 127.497 87.6558 127.5H61.0933V132.813H87.6558C89.8329 132.826 91.9789 132.297 93.9003 131.273C95.8216 130.249 97.4576 128.762 98.6606 126.948L151.637 96.0716C152.234 95.7229 152.894 95.4962 153.579 95.4048C154.264 95.3133 154.96 95.3588 155.627 95.5387C156.294 95.7187 156.919 96.0293 157.465 96.4528C158.012 96.8762 158.468 97.4039 158.809 98.0053C159.507 99.2275 159.697 100.675 159.339 102.036C158.981 103.397 158.103 104.563 156.894 105.283V105.283Z" fill="#4AF6CD"/>
<path d="M7.96826 85H119.531C120.235 85 120.911 84.7201 121.409 84.222C121.907 83.7239 122.187 83.0482 122.187 82.3438V59.7045L129.853 62.7725C131.752 63.5338 133.872 63.5338 135.771 62.7725L143.437 59.7045V66.4062C143.437 67.1107 143.717 67.7864 144.215 68.2845C144.713 68.7826 145.389 69.0625 146.093 69.0625H162.031C162.735 69.0625 163.411 68.7826 163.909 68.2845C164.407 67.7864 164.687 67.1107 164.687 66.4062V7.96875C164.687 7.26427 164.407 6.58864 163.909 6.0905C163.411 5.59235 162.735 5.3125 162.031 5.3125H146.093C145.389 5.3125 144.713 5.59235 144.215 6.0905C143.717 6.58864 143.437 7.26427 143.437 7.96875V10.625H87.6558C86.9513 10.6252 86.2758 10.9051 85.7778 11.4033L75.9311 21.25H7.96826C7.26378 21.25 6.58815 21.5299 6.09001 22.028C5.59187 22.5261 5.31201 23.2018 5.31201 23.9062V82.3438C5.31201 83.0482 5.59187 83.7239 6.09001 84.222C6.58815 84.7201 7.26378 85 7.96826 85ZM148.75 10.625H159.375V63.75H148.75V10.625ZM88.7555 15.9375H143.437V53.983L133.8 57.8372C133.167 58.0923 132.46 58.0923 131.827 57.8372L120.519 53.3216C120.205 53.1944 119.87 53.1277 119.531 53.125H95.6245C94.2155 53.125 92.8643 52.5653 91.868 51.569C90.8717 50.5727 90.312 49.2215 90.312 47.8125C90.312 46.4035 90.8717 45.0523 91.868 44.056C92.8643 43.0597 94.2155 42.5 95.6245 42.5H130.156V37.1875H122.187V23.9062C122.187 23.2018 121.907 22.5261 121.409 22.028C120.911 21.5299 120.235 21.25 119.531 21.25H83.4429L88.7555 15.9375ZM10.6245 26.5625H116.875V37.1875H95.6245C92.8066 37.1875 90.1041 38.3069 88.1115 40.2995C86.1189 42.2921 84.9995 44.9946 84.9995 47.8125C84.9995 50.6304 86.1189 53.3329 88.1115 55.3255C90.1041 57.3181 92.8066 58.4375 95.6245 58.4375H116.875V79.6875H10.6245V26.5625Z" fill="#4AF6CD"/>
<path d="M63.749 31.875C59.5462 31.875 55.4377 33.1213 51.9432 35.4563C48.4486 37.7912 45.725 41.11 44.1166 44.993C42.5082 48.8759 42.0874 53.1486 42.9073 57.2707C43.7273 61.3928 45.7511 65.1792 48.723 68.151C51.6949 71.1229 55.4813 73.1467 59.6034 73.9667C63.7255 74.7866 67.9981 74.3658 71.8811 72.7574C75.764 71.1491 79.0828 68.4254 81.4178 64.9309C83.7527 61.4363 84.999 57.3279 84.999 53.125C84.9927 47.4911 82.7518 42.0897 78.7681 38.106C74.7843 34.1222 69.3829 31.8813 63.749 31.875V31.875ZM63.749 69.0625C60.5969 69.0625 57.5155 68.1278 54.8946 66.3765C52.2737 64.6253 50.231 62.1362 49.0247 59.224C47.8184 56.3118 47.5028 53.1073 48.1178 50.0157C48.7327 46.9242 50.2506 44.0844 52.4795 41.8555C54.7084 39.6266 57.5482 38.1087 60.6398 37.4937C63.7314 36.8788 66.9359 37.1944 69.8481 38.4007C72.7603 39.6069 75.2493 41.6497 77.0006 44.2706C78.7518 46.8915 79.6865 49.9729 79.6865 53.125C79.6823 57.3506 78.0018 61.4019 75.0139 64.3899C72.0259 67.3778 67.9746 69.0583 63.749 69.0625V69.0625Z" fill="#4AF6CD"/>
<path d="M15.937 34.5312V45.1562H21.2495V37.1875H29.2183V31.875H18.5933C17.8888 31.875 17.2132 32.1549 16.715 32.653C16.2169 33.1511 15.937 33.8268 15.937 34.5312Z" fill="#4AF6CD"/>
<path d="M21.2495 61.0938H15.937V71.7188C15.937 72.4232 16.2169 73.0989 16.715 73.597C17.2132 74.0951 17.8888 74.375 18.5933 74.375H29.2183V69.0625H21.2495V61.0938Z" fill="#4AF6CD"/>
<path d="M106.25 69.0625H98.2812V74.375H108.906C109.611 74.375 110.286 74.0951 110.785 73.597C111.283 73.0989 111.562 72.4232 111.562 71.7188V61.0938H106.25V69.0625Z" fill="#4AF6CD"/>
</svg>
