<svg width="36" height="36" viewBox="0 0 36 36" fill="none" xmlns="http://www.w3.org/2000/svg">
<path d="M3.88559 2.02454C3.03305 2.02454 2.33954 2.71907 2.33954 3.57226C2.33954 4.42571 3.03305 5.12025 3.88559 5.12025C4.73813 5.12025 5.43192 4.42571 5.43192 3.57226C5.43192 2.71907 4.73813 2.02454 3.88559 2.02454ZM3.88559 4.06525C3.61423 4.06525 3.39313 3.84419 3.39313 3.57226C3.39313 3.3006 3.61423 3.07954 3.88559 3.07954C4.15723 3.07954 4.37806 3.3006 4.37806 3.57226C4.37806 3.84419 4.15723 4.06525 3.88559 4.06525Z" fill="white"/>
<path d="M7.82227 2.02454C6.96973 2.02454 6.27594 2.71907 6.27594 3.57226C6.27594 4.42571 6.96973 5.12025 7.82227 5.12025C8.67481 5.12025 9.36832 4.42571 9.36832 3.57226C9.36832 2.71907 8.67481 2.02454 7.82227 2.02454ZM7.82227 4.06525C7.55063 4.06525 7.32981 3.84419 7.32981 3.57226C7.32981 3.3006 7.55063 3.07954 7.82227 3.07954C8.09363 3.07954 8.31473 3.3006 8.31473 3.57226C8.31473 3.84419 8.09363 4.06525 7.82227 4.06525Z" fill="white"/>
<path d="M11.7587 2.02454C10.9062 2.02454 10.2126 2.71907 10.2126 3.57226C10.2126 4.42571 10.9062 5.12025 11.7587 5.12025C12.6112 5.12025 13.305 4.42571 13.305 3.57226C13.305 2.71907 12.6112 2.02454 11.7587 2.02454ZM11.7587 4.06525C11.4873 4.06525 11.2662 3.84419 11.2662 3.57226C11.2662 3.3006 11.4873 3.07954 11.7587 3.07954C12.0303 3.07954 12.2512 3.3006 12.2512 3.57226C12.2512 3.84419 12.0303 4.06525 11.7587 4.06525Z" fill="white"/>
<path d="M35.4331 10.4051C35.7242 10.4051 35.9602 10.1689 35.9602 9.87745L36 2.32116C36 1.04125 34.9599 0 33.6813 0H2.31894C1.04041 0 0 1.04153 0 2.32144V27.8418C0 29.0019 0.854462 29.9659 1.96628 30.1363C2.08136 30.1542 2.19919 30.1633 2.31894 30.1633H12.5708V32.055H10.98C9.91901 32.055 9.05548 32.9191 9.05548 33.9813V35.121C9.05548 35.6057 9.44934 36 9.93356 36H12.4461C12.737 36 12.9729 35.7638 12.9729 35.4724C12.9729 35.1812 12.737 34.945 12.4461 34.945H10.1093V33.9813C10.1093 33.5007 10.4999 33.1097 10.98 33.1097H24.9802C25.4603 33.1097 25.8508 33.5007 25.8508 33.9813V34.945H15.717C15.4262 34.945 15.1902 35.1812 15.1902 35.4724C15.1902 35.7638 15.4262 36 15.717 36H26.0263C26.5106 36 26.9044 35.6057 26.9044 35.121V33.9813C26.9044 32.9191 26.0412 32.055 24.9799 32.055H23.3891V30.1633H33.6412C33.761 30.1633 33.8788 30.1542 33.9936 30.1363C35.1057 29.9659 35.9599 29.0019 35.9599 27.8418V13.1477C35.9599 12.8563 35.7242 12.6201 35.4331 12.6201C35.1422 12.6201 34.9063 12.8563 34.9063 13.1477V24.7863H18.4367V7.17465H34.9063V9.87745C34.9063 10.1689 35.1422 10.4051 35.4331 10.4051V10.4051ZM1.09259 7.17465H17.3828V24.7483H1.09259V7.17465ZM22.3355 32.055H13.6247V30.1633H22.3355V32.055ZM34.9063 25.8413V27.8418C34.9063 28.4965 34.4075 29.0368 33.7703 29.102C33.7278 29.1061 33.6849 29.1083 33.6412 29.1083H2.31894C2.27527 29.1083 2.23215 29.1061 2.18985 29.102C1.55264 29.0368 1.05386 28.4965 1.05386 27.8418V25.8413H34.9063ZM17.9099 6.11965H1.09259V2.32116C1.09259 1.62305 1.66003 1.055 2.35767 1.055H33.6412C34.3389 1.055 34.9063 1.62305 34.9063 2.32144V6.11965H17.9099Z" fill="white"/>
<path d="M3.2981 9.27665H5.9675C6.25837 9.27665 6.4943 9.04074 6.4943 8.74929C6.4943 8.45811 6.25837 8.22192 5.9675 8.22192H3.2981C3.00696 8.22192 2.77103 8.45811 2.77103 8.74929C2.77103 9.04074 3.00696 9.27665 3.2981 9.27665Z" fill="white"/>
<path d="M7.79398 9.27665H9.05851C9.34937 9.27665 9.5853 9.04074 9.5853 8.74929C9.5853 8.45811 9.34937 8.22192 9.05851 8.22192H7.79398C7.50284 8.22192 7.26718 8.45811 7.26718 8.74929C7.26718 9.04074 7.50284 9.27665 7.79398 9.27665Z" fill="white"/>
<path d="M7.30207 10.0837H5.5459C5.25504 10.0837 5.0191 10.3199 5.0191 10.6114C5.0191 10.9026 5.25504 11.1387 5.5459 11.1387H7.30207C7.59321 11.1387 7.82914 10.9026 7.82914 10.6114C7.82914 10.3199 7.59321 10.0837 7.30207 10.0837Z" fill="white"/>
<path d="M15.5916 12.0122H13.8354C13.5445 12.0122 13.3086 12.2484 13.3086 12.5396C13.3086 12.8307 13.5445 13.0669 13.8354 13.0669H15.5916C15.8827 13.0669 16.1184 12.8307 16.1184 12.5396C16.1184 12.2484 15.8827 12.0122 15.5916 12.0122Z" fill="white"/>
<path d="M8.39111 10.6114C8.39111 10.9026 8.62705 11.1387 8.91791 11.1387H13.1328C13.424 11.1387 13.6599 10.9026 13.6599 10.6114C13.6599 10.3199 13.424 10.0837 13.1328 10.0837H8.91791C8.62705 10.0837 8.39111 10.3199 8.39111 10.6114Z" fill="white"/>
<path d="M6.70496 12.5396C6.70496 12.8307 6.94089 13.0669 7.23203 13.0669H8.14527C8.43613 13.0669 8.67206 12.8307 8.67206 12.5396C8.67206 12.2484 8.43613 12.0122 8.14527 12.0122H7.23203C6.94089 12.0122 6.70496 12.2484 6.70496 12.5396Z" fill="white"/>
<path d="M12.2196 13.0669C12.5107 13.0669 12.7466 12.8307 12.7466 12.5396C12.7466 12.2484 12.5107 12.0122 12.2196 12.0122H9.6908C9.39966 12.0122 9.16373 12.2484 9.16373 12.5396C9.16373 12.8307 9.39966 13.0669 9.6908 13.0669H12.2196Z" fill="white"/>
<path d="M6.4943 19.3758C6.4943 19.0843 6.25837 18.8484 5.9675 18.8484H3.2981C3.00696 18.8484 2.77103 19.0843 2.77103 19.3758C2.77103 19.6669 3.00696 19.9031 3.2981 19.9031H5.9675C6.25837 19.9031 6.4943 19.6669 6.4943 19.3758Z" fill="white"/>
<path d="M7.79398 18.8484C7.50284 18.8484 7.26718 19.0843 7.26718 19.3758C7.26718 19.6669 7.50284 19.9031 7.79398 19.9031H9.05851C9.34937 19.9031 9.5853 19.6669 9.5853 19.3758C9.5853 19.0843 9.34937 18.8484 9.05851 18.8484H7.79398Z" fill="white"/>
<path d="M7.82914 21.2374C7.82914 20.9463 7.59321 20.7101 7.30207 20.7101H5.5459C5.25504 20.7101 5.0191 20.9463 5.0191 21.2374C5.0191 21.5289 5.25504 21.7651 5.5459 21.7651H7.30207C7.59321 21.7651 7.82914 21.5289 7.82914 21.2374Z" fill="white"/>
<path d="M8.14527 22.6387H7.23203C6.94089 22.6387 6.70496 22.8746 6.70496 23.166C6.70496 23.4572 6.94089 23.6934 7.23203 23.6934H8.14527C8.43613 23.6934 8.67206 23.4572 8.67206 23.166C8.67206 22.8746 8.43613 22.6387 8.14527 22.6387Z" fill="white"/>
<path d="M15.5916 22.6387H13.8354C13.5445 22.6387 13.3086 22.8746 13.3086 23.166C13.3086 23.4572 13.5445 23.6934 13.8354 23.6934H15.5916C15.8827 23.6934 16.1184 23.4572 16.1184 23.166C16.1184 22.8746 15.8827 22.6387 15.5916 22.6387Z" fill="white"/>
<path d="M13.6599 21.2374C13.6599 20.9463 13.424 20.7101 13.1328 20.7101H8.91791C8.62705 20.7101 8.39111 20.9463 8.39111 21.2374C8.39111 21.5289 8.62705 21.7651 8.91791 21.7651H13.1328C13.424 21.7651 13.6599 21.5289 13.6599 21.2374Z" fill="white"/>
<path d="M12.2196 22.6387H9.6908C9.39966 22.6387 9.16373 22.8746 9.16373 23.166C9.16373 23.4572 9.39966 23.6934 9.6908 23.6934H12.2196C12.5107 23.6934 12.7466 23.4572 12.7466 23.166C12.7466 22.8746 12.5107 22.6387 12.2196 22.6387Z" fill="white"/>
<path d="M3.2981 15.4838H4.77329C5.06415 15.4838 5.30008 15.2476 5.30008 14.9564C5.30008 14.665 5.06415 14.4291 4.77329 14.4291H3.2981C3.00696 14.4291 2.77103 14.665 2.77103 14.9564C2.77103 15.2476 3.00696 15.4838 3.2981 15.4838Z" fill="white"/>
<path d="M12.1844 14.9564C12.1844 14.665 11.9487 14.4291 11.6576 14.4291H6.24848C5.95761 14.4291 5.72168 14.665 5.72168 14.9564C5.72168 15.2476 5.95761 15.4838 6.24848 15.4838H11.6576C11.9487 15.4838 12.1844 15.2476 12.1844 14.9564Z" fill="white"/>
<path d="M11.2011 16.8181C11.2011 16.527 10.9652 16.2908 10.6741 16.2908H5.5459C5.25504 16.2908 5.0191 16.527 5.0191 16.8181C5.0191 17.1096 5.25504 17.3458 5.5459 17.3458H10.6741C10.9652 17.3458 11.2011 17.1096 11.2011 16.8181Z" fill="white"/>
<path d="M12.1495 17.3458H13.1328C13.424 17.3458 13.6599 17.1096 13.6599 16.8181C13.6599 16.527 13.424 16.2908 13.1328 16.2908H12.1495C11.8584 16.2908 11.6225 16.527 11.6225 16.8181C11.6225 17.1096 11.8584 17.3458 12.1495 17.3458Z" fill="white"/>
<path d="M24.1183 20.3882H20.7466C20.4555 20.3882 20.2195 20.6244 20.2195 20.9155C20.2195 21.207 20.4555 21.4429 20.7466 21.4429H24.1183C24.4095 21.4429 24.6454 21.207 24.6454 20.9155C24.6454 20.6244 24.4095 20.3882 24.1183 20.3882Z" fill="white"/>
<path d="M32.6888 20.3882H26.0151C25.7243 20.3882 25.4883 20.6244 25.4883 20.9155C25.4883 21.207 25.7243 21.4429 26.0151 21.4429H32.6888C32.9799 21.4429 33.2159 21.207 33.2159 20.9155C33.2159 20.6244 32.9799 20.3882 32.6888 20.3882Z" fill="white"/>
<path d="M24.1183 22.4275H20.7466C20.4555 22.4275 20.2195 22.6637 20.2195 22.9551C20.2195 23.2463 20.4555 23.4825 20.7466 23.4825H24.1183C24.4095 23.4825 24.6454 23.2463 24.6454 22.9551C24.6454 22.6637 24.4095 22.4275 24.1183 22.4275Z" fill="white"/>
<path d="M32.6888 22.4275H26.0151C25.7243 22.4275 25.4883 22.6637 25.4883 22.9551C25.4883 23.2463 25.7243 23.4825 26.0151 23.4825H32.6888C32.9799 23.4825 33.2159 23.2463 33.2159 22.9551C33.2159 22.6637 32.9799 22.4275 32.6888 22.4275Z" fill="white"/>
<path d="M33.2318 9.58487C33.2318 8.83342 32.6212 8.22192 31.8706 8.22192H21.5648C20.8142 8.22192 20.2033 8.83342 20.2033 9.58487V16.7282V16.7287V17.9781C20.2033 18.7296 20.8142 19.3411 21.5648 19.3411H31.8706C32.6212 19.3411 33.2318 18.7296 33.2318 17.9781V9.58487ZM32.1782 17.9781C32.1782 18.1481 32.04 18.2861 31.8706 18.2861H21.5648C21.3951 18.2861 21.2572 18.1481 21.2572 17.9781V16.9471L25.1162 13.0859L27.7795 16.0906C27.9726 16.3086 28.3058 16.3284 28.5233 16.1351C28.7411 15.9418 28.7609 15.6086 28.5678 15.3905L28.3261 15.1181L29.517 13.9264L32.1782 16.9289V17.9781ZM32.1782 15.3394L30.1504 13.0518C29.9985 12.8805 29.7801 12.7782 29.5513 12.7713C29.3215 12.7647 29.0984 12.8535 28.9367 13.0155L27.6254 14.3273L25.7495 12.2112C25.5976 12.0397 25.3793 11.9374 25.1505 11.9308C24.922 11.9245 24.6976 12.0127 24.5358 12.1747L21.2572 15.4554V9.58487C21.2572 9.41495 21.3951 9.27665 21.5648 9.27665H31.8706C32.0403 9.27665 32.1782 9.41495 32.1782 9.58487V15.3394Z" fill="white"/>
</svg>
