<svg width="36" height="36" viewBox="0 0 36 36" fill="none" xmlns="http://www.w3.org/2000/svg">
<path d="M36 2.4521C36.0027 1.79475 35.749 1.17761 35.2857 0.714257C34.8225 0.250969 34.2088 -0.00285852 33.548 2.42884e-05C32.8925 0.00276647 32.2755 0.260391 31.8105 0.725225C31.6138 0.921959 31.2556 1.34735 31.0597 1.58339C30.8539 1.83124 30.888 2.1989 31.1358 2.40464C31.3836 2.61037 31.7513 2.57634 31.9571 2.32849C32.2641 1.95878 32.5176 1.66783 32.6353 1.55006C32.8813 1.30411 33.2071 1.16784 33.5529 1.16644C33.5547 1.16644 33.5565 1.16644 33.5584 1.16644C33.9002 1.16644 34.2207 1.29862 34.461 1.53909C34.7026 1.78075 34.835 2.10328 34.8336 2.44724C34.8321 2.79297 34.6958 3.1188 34.4499 3.36482C34.2298 3.58497 33.4731 4.18522 32.3889 4.94256C31.7475 3.84611 30.5581 3.10748 29.1988 3.10748H20.6584C19.5056 3.10748 18.4217 3.55642 17.6064 4.37155L0.535289 21.4428C0.190125 21.788 0 22.2469 0 22.735C0 23.2231 0.190125 23.6821 0.535289 24.0272L11.9728 35.4647C12.3179 35.8098 12.7769 36 13.265 36C13.7531 36 14.212 35.8099 14.5572 35.4647L31.6285 18.3935C32.4436 17.5783 32.8926 16.4945 32.8926 15.3416V6.80126C32.8926 6.54926 32.8671 6.3031 32.8187 6.06516C34.0527 5.216 34.9587 4.50557 35.2746 4.18965C35.7396 3.72461 35.9972 3.10762 36 2.4521ZM31.7262 15.3416C31.7262 16.1829 31.3985 16.9738 30.8037 17.5686L13.7324 34.6399C13.4747 34.8976 13.0554 34.8977 12.7976 34.6399L1.36012 23.2025C1.10243 22.9448 1.10243 22.5253 1.36012 22.2677L18.4314 5.19639C19.0263 4.60154 19.8171 4.27396 20.6584 4.27396H29.1987C30.1578 4.27396 30.9938 4.811 31.4219 5.60005C30.7329 6.05623 29.9616 6.54132 29.1432 7.01832C29.1177 6.99033 29.0916 6.96256 29.0645 6.93549C28.1094 5.98037 26.5553 5.98037 25.6002 6.93549C24.6451 7.89061 24.6451 9.44466 25.6002 10.3998C26.0778 10.8773 26.7051 11.1161 27.3323 11.1161C27.9596 11.1161 28.5869 10.8773 29.0645 10.3998C29.702 9.76226 29.9134 8.85811 29.6998 8.04312C30.4116 7.62884 31.0951 7.20528 31.7259 6.79564C31.726 6.79754 31.7261 6.79937 31.7261 6.80133V15.3416H31.7262ZM26.8115 8.92969C26.9139 9.13338 27.1195 9.25095 27.333 9.25095C27.4211 9.25095 27.5106 9.23091 27.5947 9.18858C27.9365 9.0166 28.2772 8.83772 28.6145 8.65449C28.6179 8.98741 28.4933 9.3214 28.2399 9.57494C27.7395 10.0753 26.9256 10.0753 26.4252 9.57494C25.925 9.0746 25.925 8.26067 26.4252 7.76032C26.6754 7.51015 27.004 7.38514 27.3326 7.38514C27.5927 7.38514 27.8521 7.46487 28.0734 7.6216C27.7433 7.80103 27.4082 7.97675 27.0705 8.14669C26.7826 8.29132 26.6666 8.64197 26.8115 8.92969Z" fill="white"/>
<path d="M16.6397 23.7595L12.2407 19.3605C12.013 19.1328 11.6436 19.1328 11.4159 19.3605C11.1882 19.5882 11.1882 19.9576 11.4159 20.1853L13.2031 21.9724L10.9485 24.227L9.16137 22.4398C8.93363 22.2121 8.56428 22.2121 8.33661 22.4398C8.10887 22.6676 8.10887 23.0369 8.33661 23.2646L12.7356 27.6636C12.8495 27.7774 12.9988 27.8345 13.148 27.8345C13.2972 27.8345 13.4466 27.7775 13.5604 27.6636C13.7881 27.4359 13.7881 27.0665 13.5604 26.8388L11.7733 25.0517L14.0278 22.7972L15.815 24.5843C15.9288 24.6981 16.0781 24.7551 16.2274 24.7551C16.3766 24.7551 16.5259 24.6982 16.6397 24.5843C16.8675 24.3565 16.8675 23.9872 16.6397 23.7595Z" fill="white"/>
<path d="M19.9391 17.3811L18.6193 16.0613C17.543 14.9849 15.7916 14.9849 14.7152 16.0613C13.6389 17.1377 13.6389 18.8891 14.7152 19.9654L16.035 21.2852C16.5731 21.8234 17.2801 22.0924 17.9871 22.0924C18.6941 22.0924 19.401 21.8234 19.9391 21.2852C21.0154 20.2088 21.0154 18.4574 19.9391 17.3811ZM19.1142 20.4604C18.4927 21.0819 17.4813 21.0819 16.8597 20.4604L15.54 19.1406C14.9184 18.519 14.9184 17.5077 15.54 16.8861C15.8508 16.5752 16.259 16.4199 16.6672 16.4199C17.0755 16.4199 17.4837 16.5753 17.7945 16.8861L19.1142 18.2059C19.7358 18.8275 19.7358 19.8388 19.1142 20.4604Z" fill="white"/>
<path d="M24.5579 15.8416L20.5714 11.8549L21.9186 10.5077C22.1463 10.28 22.1463 9.91062 21.9186 9.68294C21.6908 9.45513 21.3215 9.45513 21.0938 9.68294L17.5745 13.2022C17.3468 13.43 17.3468 13.7993 17.5745 14.027C17.6884 14.1408 17.8377 14.1978 17.9869 14.1978C18.1361 14.1978 18.2855 14.1409 18.3993 14.027L19.7465 12.6798L23.733 16.6664C23.8469 16.7803 23.9962 16.8373 24.1454 16.8373C24.2946 16.8373 24.444 16.7803 24.5578 16.6664C24.7857 16.4386 24.7857 16.0693 24.5579 15.8416Z" fill="white"/>
</svg>
