<svg width="36" height="36" viewBox="0 0 36 36" fill="none" xmlns="http://www.w3.org/2000/svg">
<g clip-path="url(#clip0)">
<path d="M32.5569 8.57977H26.983V6.98236C26.983 6.6882 26.7446 6.4498 26.4504 6.4498H25.989V5.7041C25.989 3.2179 23.9661 1.19531 21.4799 1.19531H14.3795C11.8932 1.19531 9.87067 3.2179 9.87067 5.7041V6.4498H9.40897C9.11481 6.4498 8.8764 6.6882 8.8764 6.98236V8.58005H6.84393C6.54977 8.58005 6.31137 8.81845 6.31137 9.11234C6.31137 9.40649 6.54977 9.6449 6.84393 9.6449H32.5569C33.8294 9.6449 34.8646 10.6804 34.8646 11.9529V16.6391C34.8646 17.7396 34.0807 18.6919 33.0065 18.9028L20.1528 21.2844H15.7063L2.85837 18.9036C1.77869 18.6919 0.994812 17.7396 0.994812 16.6391V11.9526C0.994812 10.6801 2.03 9.6449 3.30249 9.6449H4.37201C4.66617 9.6449 4.90457 9.40649 4.90457 9.11234C4.90457 8.81818 4.66617 8.57977 4.37201 8.57977H3.30249C1.44278 8.57977 -0.0703125 10.0929 -0.0703125 11.9526V16.6391C-0.0703125 17.7558 0.4823 18.7677 1.34967 19.3862V31.5503C1.34967 33.41 2.86276 34.9231 4.72247 34.9231H25.6339C25.928 34.9231 26.1664 34.6847 26.1664 34.3905C26.1664 34.0963 25.928 33.8579 25.6339 33.8579H4.72247C3.44998 33.8579 2.41479 32.8228 2.41479 31.5503V19.8918C2.495 19.9138 2.57629 19.9336 2.65897 19.9498L15.1249 22.2597V27.8523C15.1249 28.0852 15.2762 28.2909 15.4987 28.3604L17.7709 29.0706C17.8226 29.0866 17.8761 29.0948 17.9297 29.0948C17.9832 29.0948 18.0368 29.0866 18.0884 29.0706L20.3607 28.3604C20.5832 28.2909 20.7345 28.0852 20.7345 27.8523V22.2597L33.2059 19.949C33.2867 19.933 33.366 19.9135 33.4446 19.8924V31.5503C33.4446 32.823 32.4094 33.8579 31.1369 33.8579H28.125C27.8308 33.8579 27.5924 34.0963 27.5924 34.3905C27.5924 34.6847 27.8308 34.9231 28.125 34.9231H31.1369C32.9966 34.9231 34.5094 33.41 34.5094 31.5503V19.387C35.3763 18.769 35.9297 17.7564 35.9297 16.6391V11.9526C35.9297 10.0929 34.4166 8.57977 32.5569 8.57977V8.57977ZM10.9355 5.7041C10.9355 3.80511 12.4805 2.26044 14.3795 2.26044H21.4799C23.3789 2.26044 24.9239 3.80511 24.9239 5.7041V6.4498H23.7167V5.7041C23.7167 4.47089 22.7131 3.46756 21.4799 3.46756H20.2994C20.0053 3.46756 19.7669 3.70596 19.7669 3.99985C19.7669 4.29401 20.0053 4.53241 20.2994 4.53241H21.4799C22.1259 4.53241 22.6516 5.05811 22.6516 5.7041V6.4498H22.1899C21.8958 6.4498 21.6573 6.6882 21.6573 6.98236V8.58005H14.2018V6.98236C14.2018 6.6882 13.9633 6.4498 13.6692 6.4498H13.2078V5.7041C13.2078 5.05811 13.7335 4.53241 14.3795 4.53241H17.8231C18.1173 4.53241 18.3557 4.29401 18.3557 3.99985C18.3557 3.70596 18.1173 3.46756 17.8231 3.46756H14.3795C13.1462 3.46756 12.1426 4.47089 12.1426 5.7041V6.4498H10.9355V5.7041ZM9.94153 8.57977V7.51465H13.1369V8.57977H9.94153ZM22.7225 8.57977V7.51465H25.9178V8.57977H22.7225ZM16.19 22.3492H19.6694V24.4083H16.19V22.3492ZM19.6694 27.4606L17.9297 28.0044L16.19 27.4606V25.4734H19.6694V27.4606Z" fill="white"/>
</g>
<defs>
<clipPath id="clip0">
<rect width="36" height="36" fill="white"/>
</clipPath>
</defs>
</svg>
