<svg width="36" height="36" viewBox="0 0 36 36" fill="none" xmlns="http://www.w3.org/2000/svg">
<path d="M33.1875 14.625H31.4961C31.2497 14.625 31.0303 14.463 30.9628 14.2307C30.6889 13.2846 30.3081 12.3666 29.8316 11.5014C29.7146 11.2888 29.7546 11.0182 29.9289 10.8439L31.1254 9.64744C31.4437 9.32906 31.6198 8.90494 31.6198 8.45381C31.6198 8.00325 31.4437 7.57912 31.1254 7.26075L28.7392 4.87406C28.1019 4.23619 26.9904 4.23619 26.3531 4.87406L25.1561 6.0705C24.9812 6.24487 24.7106 6.28425 24.4986 6.16781C23.634 5.69194 22.716 5.31169 21.7693 5.03663C21.537 4.96969 21.375 4.75031 21.375 4.50337V2.8125C21.375 1.88212 20.6179 1.125 19.6875 1.125H16.3125C15.3821 1.125 14.625 1.88212 14.625 2.8125V4.50337C14.625 4.74975 14.463 4.96969 14.2301 5.03663C13.284 5.31169 12.3666 5.6925 11.5014 6.16781C11.2894 6.28481 11.0188 6.24487 10.8439 6.0705L9.64687 4.87463C9.00956 4.23675 7.89806 4.23675 7.26075 4.87463L4.87463 7.26131C4.55625 7.57969 4.38019 8.00381 4.38019 8.45437C4.38019 8.9055 4.55625 9.32906 4.87463 9.648L6.07106 10.8444C6.24544 11.0188 6.28537 11.2899 6.16837 11.502C5.69194 12.3671 5.31169 13.2851 5.03663 14.2312C4.96969 14.463 4.75031 14.625 4.50394 14.625H2.8125C1.88212 14.625 1.125 15.3821 1.125 16.3125V19.6875C1.125 20.6179 1.88212 21.375 2.8125 21.375H4.50394C4.75031 21.375 4.96969 21.537 5.03719 21.7693C5.31112 22.7154 5.69194 23.6334 6.16837 24.4986C6.28537 24.7112 6.24544 24.9818 6.07106 25.1561L4.87463 26.3526C4.55625 26.6709 4.38019 27.0951 4.38019 27.5462C4.38019 27.9968 4.55625 28.4209 4.87463 28.7392L7.26075 31.1259C7.89806 31.7638 9.00956 31.7638 9.64687 31.1259L10.8439 29.9295C11.0188 29.7546 11.2894 29.7157 11.5014 29.8322C12.366 30.3081 13.284 30.6883 14.2307 30.9634C14.463 31.0309 14.625 31.2502 14.625 31.4966V33.1875C14.625 34.1179 15.3821 34.875 16.3125 34.875H19.6875C20.6179 34.875 21.375 34.1179 21.375 33.1875V31.4966C21.375 31.2502 21.537 31.0303 21.7699 30.9634C22.716 30.6883 23.6334 30.3075 24.4986 29.8322C24.7106 29.7152 24.9812 29.7546 25.1561 29.9295L26.3531 31.1259C26.9904 31.7638 28.1019 31.7638 28.7392 31.1259L31.1254 28.7392C31.4437 28.4209 31.6198 27.9968 31.6198 27.5462C31.6198 27.0951 31.4437 26.6715 31.1254 26.3526L29.9289 25.1561C29.7546 24.9818 29.7146 24.7106 29.8316 24.4986C30.3081 23.6334 30.6883 22.7154 30.9634 21.7693C31.0303 21.537 31.2497 21.375 31.4961 21.375H33.1875C34.1179 21.375 34.875 20.6179 34.875 19.6875V16.3125C34.875 15.3821 34.1179 14.625 33.1875 14.625V14.625ZM33.75 19.6875C33.75 19.9974 33.498 20.25 33.1875 20.25H31.4961C30.7519 20.25 30.0881 20.7461 29.8828 21.456C29.6314 22.3228 29.2826 23.1638 28.8461 23.9558C28.4889 24.6043 28.6071 25.425 29.1336 25.9515L30.33 27.1479C30.4357 27.2543 30.4948 27.3954 30.4948 27.5462C30.4948 27.6964 30.4363 27.8376 30.33 27.9439L27.9439 30.3306C27.7239 30.5499 27.3684 30.5499 27.1485 30.3306L25.9515 29.1341C25.425 28.6076 24.6043 28.4906 23.9558 28.8467C23.1643 29.2821 22.3228 29.6314 21.4566 29.8828C20.7461 30.0887 20.25 30.7519 20.25 31.4966V33.1875C20.25 33.4974 19.998 33.75 19.6875 33.75H16.3125C16.002 33.75 15.75 33.4974 15.75 33.1875V31.4966C15.75 30.7524 15.2539 30.0887 14.544 29.8828C13.6772 29.6308 12.8357 29.2821 12.0443 28.8467C11.7939 28.7089 11.5172 28.6419 11.2421 28.6419C10.8056 28.6419 10.3714 28.8112 10.0485 29.1341L8.8515 30.3306C8.63156 30.5499 8.27606 30.5499 8.05612 30.3306L5.67 27.9439C5.56425 27.8376 5.50519 27.6964 5.50519 27.5462C5.50519 27.396 5.56369 27.2543 5.67 27.1479L6.86644 25.9515C7.39294 25.425 7.51106 24.6043 7.15388 23.9558C6.71794 23.1638 6.36863 22.3223 6.11775 21.456C5.91188 20.7461 5.24812 20.25 4.50394 20.25H2.8125C2.502 20.25 2.25 19.9974 2.25 19.6875V16.3125C2.25 16.0026 2.502 15.75 2.8125 15.75H4.50394C5.24812 15.75 5.91187 15.2539 6.11719 14.544C6.36862 13.6772 6.71738 12.8363 7.15388 12.0443C7.51106 11.3957 7.39294 10.575 6.86644 10.0485L5.67 8.85206C5.56425 8.74575 5.50519 8.60456 5.50519 8.45381C5.50519 8.30363 5.56369 8.16244 5.67 8.05612L8.05612 5.66944C8.27606 5.45006 8.63156 5.45006 8.8515 5.66944L10.0485 6.86588C10.575 7.39181 11.3963 7.50938 12.0443 7.15331C12.8357 6.71794 13.6772 6.36862 14.5434 6.11719C15.2539 5.91131 15.75 5.24812 15.75 4.50337V2.8125C15.75 2.50256 16.002 2.25 16.3125 2.25H19.6875C19.998 2.25 20.25 2.50256 20.25 2.8125V4.50337C20.25 5.24756 20.7461 5.91131 21.456 6.11719C22.3228 6.36919 23.1643 6.71794 23.9558 7.15331C24.6038 7.50994 25.425 7.39238 25.9515 6.86588L27.1485 5.66944C27.3684 5.45006 27.7239 5.45006 27.9439 5.66944L30.33 8.05612C30.4357 8.16244 30.4948 8.30363 30.4948 8.45381C30.4948 8.604 30.4363 8.74575 30.33 8.85206L29.1336 10.0485C28.6071 10.575 28.4889 11.3957 28.8461 12.0443C29.2821 12.8363 29.6314 13.6778 29.8823 14.544C30.0881 15.2539 30.7519 15.75 31.4961 15.75H33.1875C33.498 15.75 33.75 16.0026 33.75 16.3125V19.6875Z" fill="white"/>
<path d="M27.9006 15.8676C28.0491 16.5639 28.125 17.2811 28.125 18C28.125 21.0386 26.7733 23.7617 24.6471 25.6191C24.7067 25.5296 24.75 25.4284 24.75 25.3125V24.1875C24.75 22.6367 23.4883 21.375 21.9375 21.375C21.0071 21.375 20.25 20.6179 20.25 19.6875V19.1492C21.6416 18.108 22.5 16.4706 22.5 14.6801V12.9375C22.5 10.7663 20.7332 9 18.5625 9H17.4375C15.2668 9 13.5 10.7663 13.5 12.9375V14.6807C13.5 16.4711 14.3584 18.1086 15.75 19.1497V19.6875C15.75 20.6179 14.9929 21.375 14.0625 21.375C12.5117 21.375 11.25 22.6367 11.25 24.1875V25.3125C11.25 25.4284 11.2933 25.5296 11.3529 25.6191C9.22669 23.7617 7.875 21.0386 7.875 18C7.875 12.4172 12.4172 7.875 18 7.875C21.4644 7.875 24.6521 9.61819 26.5264 12.5376L27.4736 11.9301C25.3912 8.68612 21.8497 6.75 18 6.75C11.7968 6.75 6.75 11.7968 6.75 18C6.75 24.2032 11.7968 29.25 18 29.25C24.2032 29.25 29.25 24.2032 29.25 18C29.25 17.2024 29.1662 16.4059 29.0002 15.6324L27.9006 15.8676ZM21.9375 22.5C22.8679 22.5 23.625 23.2571 23.625 24.1875V24.75H18.5625V22.8707L20.4469 22.0629C20.8806 22.3357 21.3891 22.5 21.9375 22.5ZM17.4375 10.125H18.5625C20.1133 10.125 21.375 11.3867 21.375 12.9375V14.022C20.5836 13.7925 19.9659 13.1513 19.7972 12.3081L19.6762 11.7023C19.6194 11.4188 19.3663 11.2342 19.0693 11.2663C18.7819 11.295 18.5625 11.5509 18.5625 11.8401C18.5625 13.0686 17.5629 14.0794 16.3344 14.0929L14.625 14.112V12.9375C14.625 11.3867 15.8867 10.125 17.4375 10.125V10.125ZM14.6661 15.2364L16.3462 15.2179C17.5151 15.2049 18.5462 14.5901 19.1436 13.6648C19.629 14.4427 20.4188 14.9889 21.3384 15.1723C21.1629 16.7619 20.1583 18.1507 18.6649 18.7909H18.6643C18.2413 18.9714 17.7576 18.9714 17.3346 18.7909C15.8614 18.1592 14.8612 16.7991 14.6661 15.2364V15.2364ZM16.8924 19.8247C17.244 19.9761 17.622 20.0509 18 20.0509C18.378 20.0509 18.756 19.9755 19.1081 19.8247C19.1183 19.8202 19.1272 19.8141 19.1374 19.8096C19.1599 20.3242 19.3162 20.8041 19.5801 21.2113L18.018 21.8807L16.4756 21.1095C16.7034 20.7242 16.8418 20.2837 16.8626 19.8096C16.8733 19.8135 16.8823 19.8202 16.8924 19.8247V19.8247ZM12.375 24.1875C12.375 23.2571 13.1321 22.5 14.0625 22.5C14.6694 22.5 15.2286 22.302 15.6893 21.9735L17.4375 22.8476V24.75H12.375V24.1875ZM11.5689 25.8142C11.6437 25.8508 11.7242 25.875 11.8125 25.875H24.1875C24.2758 25.875 24.3562 25.8508 24.4305 25.8148C22.6806 27.2571 20.4396 28.125 18 28.125C15.5599 28.125 13.3194 27.2571 11.5689 25.8142Z" fill="white"/>
<path d="M27.6098 14.8021L28.6774 14.4472C28.5092 13.9415 28.3033 13.4442 28.0648 12.9695L27.0596 13.4735C27.2734 13.901 27.4584 14.3476 27.6098 14.8021V14.8021Z" fill="white"/>
</svg>
