<svg width="170" height="170" viewBox="0 0 170 170" fill="none" xmlns="http://www.w3.org/2000/svg">
<g clip-path="url(#clip0)">
<path d="M170 86.2275C169.996 85.4603 169.69 84.7264 169.15 84.1891L158.184 73.1257L164.792 58.9314C165.461 57.496 164.857 55.7821 163.442 55.1032C163.433 55.0989 163.424 55.0946 163.415 55.0903L149.36 48.5264L150.763 32.8917C150.905 31.3104 149.756 29.912 148.197 29.7682C148.19 29.7675 148.183 29.7668 148.176 29.7664L132.758 28.4669L128.831 13.2806C128.434 11.745 126.885 10.8264 125.371 11.2296C125.362 11.2318 125.354 11.2343 125.346 11.2365L110.416 15.3593L101.586 2.46454C100.694 1.15961 98.929 0.835439 97.6429 1.74037C97.6351 1.74613 97.6269 1.75152 97.6191 1.75727L84.9927 10.8282L72.3606 1.75727C71.0837 0.839033 69.3152 1.14487 68.4102 2.44046C68.4046 2.44837 68.3993 2.45663 68.3936 2.46454L59.5698 15.3593L44.6397 11.2365C43.1297 10.8192 41.5723 11.7231 41.1611 13.2551C41.159 13.2638 41.1565 13.272 41.1544 13.2806L37.2299 28.4669L21.8038 29.7636C20.2443 29.8937 19.0836 31.2816 19.2115 32.8644C19.2122 32.8733 19.2129 32.8827 19.214 32.8917L20.6307 48.5264L6.57051 55.0903C5.14876 55.7541 4.52679 57.4615 5.18064 58.9041C5.18489 58.9134 5.18914 58.9224 5.19339 58.9314L11.8013 73.1257L0.835341 84.1891C-0.274361 85.3089 -0.278965 87.1292 0.824715 88.2552C0.828257 88.2588 0.831799 88.2624 0.835341 88.266L11.8013 99.3293L5.19339 113.524C4.52431 114.959 5.12893 116.673 6.54359 117.352C6.55245 117.356 6.56165 117.36 6.57051 117.365L20.6251 123.929L19.2083 139.563C19.067 141.145 20.216 142.543 21.7748 142.686C21.7844 142.687 21.7943 142.688 21.8038 142.689L37.2214 143.988L41.1487 159.174C41.5461 160.71 43.095 161.629 44.6089 161.225C44.6174 161.223 44.6255 161.221 44.634 161.219L59.5641 157.096L68.3936 169.991C69.2855 171.295 71.0508 171.62 72.3369 170.715C72.345 170.709 72.3528 170.704 72.3606 170.698L84.9927 161.627L97.6248 170.698C98.9017 171.616 100.67 171.31 101.575 170.015C101.581 170.007 101.587 169.998 101.592 169.991L110.421 157.096L125.351 161.219C126.861 161.636 128.419 160.732 128.83 159.2C128.832 159.191 128.835 159.183 128.837 159.174L132.761 143.988L148.179 142.692C149.739 142.561 150.899 141.173 150.771 139.591C150.77 139.582 150.77 139.572 150.769 139.563L149.352 123.929L163.409 117.365C164.831 116.701 165.453 114.994 164.799 113.551C164.795 113.542 164.791 113.533 164.786 113.524L158.184 99.3293L169.164 88.266C169.699 87.7265 170 86.993 170 86.2275ZM152.769 96.6785C151.917 97.5364 151.69 98.846 152.202 99.9475L158.436 113.357L145.161 119.556C144.07 120.065 143.413 121.217 143.523 122.431L144.849 137.203L130.282 138.431C129.086 138.532 128.082 139.386 127.777 140.564L124.065 154.911L109.965 151.018C108.804 150.702 107.574 151.162 106.893 152.168L98.5656 164.329L86.6305 155.759C85.6494 155.054 84.336 155.054 83.3549 155.759L71.4227 164.329L63.0835 152.151C62.5543 151.377 61.6854 150.915 60.7571 150.914C60.5052 150.914 60.2545 150.947 60.0119 151.015L45.9091 154.908L42.2056 140.567C41.9003 139.389 40.8969 138.534 39.7007 138.434L25.1305 137.206L26.4566 122.434C26.5664 121.22 25.9101 120.068 24.8188 119.559L11.5406 113.354L17.7745 99.9475C18.287 98.846 18.06 97.5364 17.2078 96.6785L6.8397 86.2275L17.2163 75.7766C18.0685 74.9187 18.2955 73.6091 17.783 72.5076L11.5491 59.0981L24.8244 52.8994C25.9157 52.3902 26.5721 51.238 26.4623 50.0243L25.1361 35.2521L39.7036 34.0245C40.8994 33.9217 41.9014 33.066 42.2056 31.8883L45.9176 17.5415L60.0175 21.4344C61.175 21.7535 62.4055 21.2989 63.0891 20.2987L71.4199 8.1256L83.3549 16.6963C84.336 17.4014 85.6494 17.4014 86.6305 16.6963L98.5627 8.1256L106.902 20.3045C107.586 21.3047 108.816 21.7593 109.974 21.4402L124.076 17.5473L127.78 31.8883C128.085 33.066 129.089 33.9206 130.285 34.0216L144.855 35.2492L143.529 50.0215C143.419 51.2351 144.075 52.3873 145.167 52.8966L158.439 59.0981L152.205 72.5047C151.693 73.6062 151.92 74.9158 152.772 75.7737L163.146 86.2275L152.769 96.6785Z" fill="#4AF6CD"/>
<path d="M121.059 49.6306C117.735 46.2696 112.359 46.2696 109.036 49.6306L48.9241 110.623C45.6145 113.996 45.6145 119.449 48.9241 122.822C52.2479 126.181 57.6232 126.181 60.947 122.822L121.061 61.8325C124.372 58.4582 124.371 53.0034 121.059 49.6306ZM117.179 57.6349C117.138 57.6794 117.096 57.7226 117.052 57.7642L56.9403 118.754C55.8699 119.912 54.0766 119.97 52.935 118.884C51.7935 117.798 51.7357 115.979 52.8061 114.82C52.8472 114.776 52.8897 114.733 52.9333 114.691L113.045 53.7017C114.115 52.5434 115.909 52.4848 117.05 53.5709C118.192 54.6573 118.25 56.4766 117.179 57.6349Z" fill="#4AF6CD"/>
<path d="M107.661 91.978C98.2714 91.978 90.6597 99.7012 90.6597 109.229C90.6597 118.756 98.2714 126.479 107.661 126.479C117.051 126.479 124.663 118.756 124.663 109.229C124.653 99.7052 117.047 91.9877 107.661 91.978ZM107.661 120.729C101.401 120.729 96.3268 115.58 96.3268 109.229C96.3268 102.877 101.401 97.7282 107.661 97.7282C113.921 97.7282 118.995 102.877 118.995 109.229C118.995 115.58 113.921 120.729 107.661 120.729Z" fill="#4AF6CD"/>
<path d="M62.3238 80.4772C71.7135 80.4772 79.3252 72.754 79.3252 63.2266C79.3252 53.6993 71.7135 45.9761 62.3238 45.9761C52.934 45.9761 45.3223 53.6993 45.3223 63.2266C45.3318 72.75 52.9382 80.4679 62.3238 80.4772ZM62.3238 51.7263C68.5835 51.7263 73.6581 56.8752 73.6581 63.2266C73.6581 69.5781 68.5835 74.727 62.3238 74.727C56.064 74.727 50.9894 69.5781 50.9894 63.2266C50.9894 56.8752 56.064 51.7263 62.3238 51.7263Z" fill="#4AF6CD"/>
</g>
<defs>
<clipPath id="clip0">
<rect width="170" height="170" fill="white"/>
</clipPath>
</defs>
</svg>
