<svg width="100" height="100" viewBox="0 0 100 100" fill="none" xmlns="http://www.w3.org/2000/svg">
<g clip-path="url(#clip0)">
<path d="M99.4699 72.9994C99.3488 72.7384 99.2359 72.522 99.1311 72.3485C97.3961 69.2238 94.0805 65.3883 89.1865 60.8411L89.083 60.737L89.0313 60.6859L88.9789 60.6336H88.9264C86.7052 58.5162 85.2987 57.0924 84.7096 56.3635C83.6319 54.975 83.3904 53.5696 83.9794 52.1455C84.3956 51.0696 85.9588 48.7973 88.6654 45.3257C90.0891 43.4858 91.2167 42.0112 92.0494 40.9003C98.0547 32.9165 100.658 27.8147 99.8596 25.593L99.5494 25.0738C99.341 24.7612 98.803 24.4752 97.9362 24.2145C97.0674 23.9542 95.957 23.9112 94.603 24.0846L79.6084 24.1882C79.3655 24.1021 79.0186 24.1102 78.5667 24.2145C78.1154 24.3188 77.8896 24.3711 77.8896 24.3711L77.6287 24.5015L77.4215 24.6582C77.2479 24.7617 77.057 24.9439 76.8485 25.2043C76.6412 25.4638 76.4678 25.7684 76.3292 26.1154C74.6966 30.3154 72.8406 34.2203 70.7574 37.83C69.473 39.9825 68.2935 41.8478 67.2163 43.4273C66.1406 45.0062 65.238 46.1695 64.5097 46.9152C63.7802 47.6616 63.1219 48.2595 62.5307 48.7112C61.9404 49.1631 61.4898 49.3541 61.1777 49.2842C60.865 49.2144 60.5705 49.1451 60.2916 49.0758C59.806 48.7632 59.4154 48.3381 59.1209 47.8002C58.8251 47.2622 58.6259 46.5851 58.5218 45.7694C58.4182 44.9531 58.357 44.251 58.3394 43.6607C58.3232 43.0711 58.3307 42.2372 58.3659 41.1612C58.402 40.0848 58.4182 39.3564 58.4182 38.9745C58.4182 37.6553 58.4439 36.2236 58.4956 34.679C58.5481 33.1344 58.5906 31.9105 58.6261 31.0089C58.6615 30.1064 58.6779 29.1516 58.6779 28.1449C58.6779 27.1383 58.6166 26.3488 58.4956 25.7759C58.3759 25.2036 58.1923 24.6481 57.9503 24.1096C57.7068 23.5716 57.3505 23.1555 56.8829 22.8601C56.4144 22.565 55.832 22.3308 55.1388 22.1569C53.2989 21.7405 50.9561 21.5153 48.1093 21.4803C41.6534 21.411 37.5052 21.8279 35.6656 22.7304C34.9367 23.1117 34.2771 23.6327 33.6873 24.2918C33.0623 25.0557 32.9752 25.4726 33.4263 25.5412C35.5093 25.8532 36.9839 26.5996 37.8517 27.7797L38.1645 28.405C38.4078 28.8561 38.6507 29.6549 38.8938 30.8001C39.1365 31.9454 39.2931 33.2122 39.3621 34.6C39.5353 37.1343 39.5353 39.3037 39.3621 41.1084C39.1883 42.9138 39.0241 44.3192 38.8675 45.3259C38.7108 46.3325 38.4767 47.1482 38.1645 47.7728C37.8517 48.3976 37.6437 48.7794 37.5393 48.918C37.4352 49.0566 37.3484 49.144 37.2795 49.1783C36.8283 49.3512 36.3591 49.4392 35.8735 49.4392C35.3871 49.4392 34.7973 49.196 34.1033 48.7098C33.4094 48.2236 32.6892 47.5558 31.9428 46.7053C31.1964 45.8545 30.3546 44.6657 29.4171 43.1386C28.4803 41.6115 27.5083 39.8067 26.5017 37.7241L25.6688 36.2137C25.1482 35.2421 24.437 33.8274 23.5344 31.9707C22.6314 30.1134 21.8332 28.3167 21.1393 26.5812C20.8619 25.8523 20.4452 25.2973 19.8899 24.9155L19.6293 24.7588C19.4561 24.6202 19.178 24.4731 18.7965 24.3162C18.4144 24.1596 18.0158 24.0472 17.5989 23.9781L3.33286 24.0817C1.87505 24.0817 0.885918 24.412 0.36509 25.0716L0.15665 25.3836C0.0525204 25.5574 0 25.8349 0 26.217C0 26.5989 0.104129 27.0675 0.31257 27.6225C2.39515 32.5171 4.65991 37.2375 7.10685 41.7846C9.5538 46.3316 11.6801 49.9943 13.4846 52.7695C15.2895 55.5467 17.1291 58.1678 19.0036 60.6316C20.8782 63.0962 22.1189 64.6756 22.726 65.3695C23.3338 66.0647 23.8113 66.5844 24.1583 66.9315L25.4602 68.1808C26.2932 69.014 27.5165 70.0119 29.1306 71.1745C30.7451 72.3378 32.5324 73.483 34.4935 74.612C36.455 75.7392 38.7369 76.659 41.3405 77.3704C43.9437 78.0826 46.4775 78.3683 48.9421 78.2305H54.9298C56.1442 78.1256 57.0642 77.7437 57.6895 77.0847L57.8967 76.8237C58.036 76.6166 58.1664 76.2947 58.2867 75.8616C58.4086 75.4277 58.4691 74.9498 58.4691 74.4298C58.4335 72.9376 58.5472 71.5926 58.8068 70.3953C59.0663 69.1982 59.3621 68.2957 59.6929 67.6879C60.0236 67.0806 60.3967 66.5682 60.8119 66.1528C61.2281 65.7364 61.5246 65.4842 61.6986 65.3974C61.8714 65.3101 62.0095 65.2508 62.1136 65.2152C62.9467 64.9377 63.927 65.2065 65.0562 66.0229C66.1845 66.8386 67.2428 67.8458 68.2326 69.0429C69.2219 70.241 70.4106 71.5852 71.7987 73.0774C73.1878 74.5703 74.4023 75.6799 75.4432 76.4099L76.4842 77.0347C77.1793 77.4516 78.0818 77.8335 79.1928 78.1805C80.3017 78.5274 81.2734 78.6142 82.1077 78.4407L95.436 78.2328C96.7543 78.2328 97.7801 78.0145 98.5077 77.5814C99.2368 77.1476 99.6699 76.6696 99.8096 76.1497C99.949 75.6292 99.9564 75.0388 99.8361 74.3786C99.7126 73.7201 99.591 73.2596 99.4699 72.9994Z" fill="white"/>
</g>
<defs>
<clipPath id="clip0">
<rect width="100" height="100" fill="white"/>
</clipPath>
</defs>
</svg>
