<svg width="100" height="100" viewBox="0 0 100 100" fill="none" xmlns="http://www.w3.org/2000/svg">
<g clip-path="url(#clip0)">
<path d="M85.7964 14.2036C76.6365 5.04379 64.4608 0 51.5061 0C51.5053 0 51.5022 0 51.5015 0C45.0943 0.000762939 38.8504 1.2413 32.9445 3.68805C27.0378 6.1348 21.7461 9.67255 17.215 14.2036C8.05589 23.3627 3.0121 35.5408 3.0121 48.494C3.0121 56.2187 4.87596 63.8954 8.4076 70.7352L0.256359 94.0216C-0.318134 95.6642 0.0885124 97.4495 1.3199 98.6801C2.18126 99.5422 3.31498 100 4.48075 100C4.98048 100 5.48555 99.9161 5.97841 99.7437L29.2648 91.5932C36.1046 95.1248 43.7813 96.9887 51.5061 96.9887C64.4592 96.9887 76.6365 91.9441 85.7964 82.785C94.9555 73.6259 100 61.4479 100 48.4947C100 35.5408 94.9562 23.3627 85.7964 14.2036V14.2036ZM81.649 78.6377C73.5977 86.6898 62.8922 91.1232 51.5061 91.1232C44.5404 91.1232 37.6206 89.4005 31.4942 86.1397C30.3833 85.5492 29.0703 85.4477 27.8916 85.8604L6.73524 93.2648L14.1403 72.1085C14.5531 70.9282 14.4508 69.6152 13.8603 68.5051C10.6003 62.3802 8.87681 55.4604 8.87681 48.494C8.87681 37.1078 13.311 26.4023 21.3623 18.351C29.4129 10.3004 40.1169 5.86624 51.5022 5.86472H51.5061C62.8929 5.86472 73.5977 10.2989 81.649 18.351C89.7011 26.4023 94.1353 37.1071 94.1353 48.494C94.1353 59.8808 89.7011 70.5864 81.649 78.6377V78.6377Z" fill="white"/>
<path d="M69.5282 52.8259C67.2974 50.5951 63.6673 50.5951 61.4365 52.8259L58.9966 55.2658C52.9381 51.9646 48.0354 47.0619 44.7334 41.0034L47.1733 38.5635C49.4049 36.3327 49.4049 32.7026 47.1733 30.4718L40.5983 23.8968C38.3675 21.666 34.7374 21.666 32.5066 23.8968L27.2468 29.1565C24.234 32.1693 24.0837 37.3489 26.8234 43.7416C29.2023 49.292 33.5556 55.3925 39.0816 60.9184C44.6075 66.4444 50.708 70.7977 56.2584 73.1766C59.2956 74.4781 62.0583 75.1274 64.4455 75.1274C67.083 75.1274 69.2619 74.3347 70.8435 72.7531L76.1032 67.4927V67.4934C77.1843 66.4124 77.7794 64.9757 77.7794 63.4476C77.7794 61.9186 77.1843 60.482 76.1032 59.4017L69.5282 52.8259ZM66.6962 68.6058C65.8363 69.4656 63.192 69.767 58.5693 67.7864C53.688 65.6944 48.2399 61.7821 43.2289 56.7711C38.2179 51.7601 34.3063 46.3127 32.2143 41.4314C30.233 36.8088 30.5344 34.1637 31.3942 33.3038L36.5532 28.1448L42.9253 34.5177L39.8712 37.5725C38.4903 38.9534 38.1569 41.0477 39.0427 42.7841C43.058 50.6577 49.3423 56.942 57.2159 60.9573C58.9531 61.8431 61.0474 61.5105 62.4283 60.1288L65.4823 57.0747L71.8552 63.4476L66.6962 68.6058Z" fill="white"/>
</g>
<defs>
<clipPath id="clip0">
<rect width="100" height="100" fill="white"/>
</clipPath>
</defs>
</svg>
